<svg width="101" height="101" viewBox="0 0 101 101" fill="none" xmlns="http://www.w3.org/2000/svg">
<rect width="101" height="101" fill="#1E1E1E"/>
<path d="M-726 -240C-726 -241.105 -725.105 -242 -724 -242H268C269.105 -242 270 -241.105 270 -240V756C270 757.105 269.105 758 268 758H-724C-725.105 758 -726 757.105 -726 756V-240Z" fill="#FFFEFE"/>
<path d="M-724 -241H268V-243H-724V-241ZM269 -240V756H271V-240H269ZM268 757H-724V759H268V757ZM-725 756V-240H-727V756H-725ZM-724 757C-724.552 757 -725 756.552 -725 756H-727C-727 757.657 -725.657 759 -724 759V757ZM269 756C269 756.552 268.552 757 268 757V759C269.657 759 271 757.657 271 756H269ZM268 -241C268.552 -241 269 -240.552 269 -240H271C271 -241.657 269.657 -243 268 -243V-241ZM-724 -243C-725.657 -243 -727 -241.657 -727 -240H-725C-725 -240.552 -724.552 -241 -724 -241V-243Z" fill="white" fill-opacity="0.1"/>
<circle cx="50.5" cy="50.5" r="48" fill="white" stroke="#909090" stroke-width="5"/>
</svg>
